<?xml version="1.0" encoding="UTF-8"?>
<svg width="400px" height="400px" viewBox="0 0 400 400" version="1.1" xmlns="http://www.w3.org/2000/svg" xmlns:xlink="http://www.w3.org/1999/xlink">
    <title>Rounded Icon</title>
    <g id="Web" stroke="none" stroke-width="1" fill="none" fill-rule="evenodd">
        <g id="Artboard" transform="translate(-91, -56)">
            <g id="Rounded-Icon" transform="translate(91, 56)">
                <rect id="Rounded-Square" fill="#C22EFF" x="0" y="0" width="400" height="400" rx="100"></rect>
                <g id="noun-grapes-191558-icon" transform="translate(81, 58)" fill="#FFFFFF" fill-rule="nonzero">
                    <g id="icon">
                        <polygon id="Path" points="137.681701 57.3150657 146.15457 57.3150657 146.15457 49.2374719 149.442935 49.2374719 157.912574 49.2374719 157.912574 41.1663376 161.908357 41.1663376 170.381226 41.1663376 170.381226 33.0887438 173.669591 33.0887438 182.13923 33.0887438 182.13923 25.0143798 186.138243 25.0143798 186.53233 25.0143798 194.607882 25.0143798 194.607882 16.5459868 195.399286 16.5459868 203.872156 16.5459868 203.872156 8.47162275 211.789427 8.47162275 220.259066 8.47162275 220.259066 0 211.789427 0 203.316558 0 194.843688 0 194.843688 8.07436404 186.926417 8.07436404 178.456778 8.07436404 178.456778 16.5459868 178.059461 16.5459868 169.987139 16.5459868 169.987139 24.6203508 165.196722 24.6203508 156.723853 24.6203508 156.723853 32.6947149 153.438718 32.6947149 144.965849 32.6947149 144.965849 40.7690789 140.970066 40.7690789 132.497197 40.7690789 132.497197 48.8434429 129.212062 48.8434429 120.739193 48.8434429 120.739193 57.3150657 129.212062 57.3150657"></polygon>
                        <g id="fruits" transform="translate(0, 62.7733)">
                            <polygon id="Path" points="203.319788 38.1174577 211.789427 38.1174577 211.789427 29.645835 203.319788 29.645835 194.843688 29.645835 186.37405 29.645835 186.37405 38.1174577 194.843688 38.1174577"></polygon>
                            <polygon id="Path" points="177.904411 46.5890805 186.37405 46.5890805 186.37405 38.1174577 177.904411 38.1174577 169.431541 38.1174577 169.431541 46.5890805 169.431541 55.0574735 177.904411 55.0574735"></polygon>
                            <polygon id="Path" points="169.431541 63.5290962 169.431541 55.0574735 160.958672 55.0574735 160.958672 63.5290962 160.958672 71.9974892 160.958672 80.469112 169.431541 80.469112 169.431541 71.9974892"></polygon>
                            <polygon id="Path" points="177.904411 88.937505 177.904411 80.469112 169.431541 80.469112 169.431541 88.937505 169.431541 97.4091277 177.904411 97.4091277 186.37405 97.4091277 186.37405 88.937505"></polygon>
                            <polygon id="Path" points="194.843688 97.4091277 186.37405 97.4091277 186.37405 105.877521 194.843688 105.877521 203.319788 105.877521 211.789427 105.877521 211.789427 97.4091277 203.319788 97.4091277"></polygon>
                            <polygon id="Path" points="220.259066 88.937505 211.789427 88.937505 211.789427 97.4091277 220.259066 97.4091277 228.731935 97.4091277 228.731935 88.937505 228.731935 80.469112 220.259066 80.469112"></polygon>
                            <polygon id="Path" points="228.731935 63.5290962 228.731935 71.9974892 228.731935 80.469112 237.204804 80.469112 237.204804 71.9974892 237.204804 63.5290962 237.204804 55.0574735 228.731935 55.0574735"></polygon>
                            <polygon id="Path" points="220.259066 46.5890805 220.259066 55.0574735 228.731935 55.0574735 228.731935 46.5890805 228.731935 38.1174577 220.259066 38.1174577 211.789427 38.1174577 211.789427 46.5890805"></polygon>
                            <polygon id="Path" points="42.3611156 8.47162275 50.8307545 8.47162275 50.8307545 0 42.3611156 0 33.8882464 0 25.4186075 0 25.4186075 8.47162275 33.8882464 8.47162275"></polygon>
                            <polygon id="Path" points="16.9457383 16.9432455 25.4186075 16.9432455 25.4186075 8.47162275 16.9457383 8.47162275 8.46963894 8.47162275 8.46963894 16.9432455 8.46963894 25.4116385 16.9457383 25.4116385"></polygon>
                            <polygon id="Path" points="8.46963894 33.8800315 8.46963894 25.4116385 0 25.4116385 0 33.8800315 0 42.354884 0 50.8200472 8.46963894 50.8200472 8.46963894 42.354884"></polygon>
                            <polygon id="Path" points="16.9457383 59.29167 16.9457383 50.8200472 8.46963894 50.8200472 8.46963894 59.29167 8.46963894 67.7632927 16.9457383 67.7632927 25.4186075 67.7632927 25.4186075 59.29167"></polygon>
                            <polygon id="Path" points="59.3003935 59.29167 50.8307545 59.29167 50.8307545 67.7632927 59.3003935 67.7632927 67.7732626 67.7632927 67.7732626 59.29167 67.7732626 50.8200472 59.3003935 50.8200472"></polygon>
                            <polygon id="Path" points="67.7732626 42.354884 67.7732626 50.8200472 76.2429016 50.8200472 76.2429016 42.354884 76.2429016 33.8800315 76.2429016 25.4116385 67.7732626 25.4116385 67.7732626 33.8800315"></polygon>
                            <polygon id="Path" points="59.3003935 16.9432455 59.3003935 25.4116385 67.7732626 25.4116385 67.7732626 16.9432455 67.7732626 8.47162275 59.3003935 8.47162275 50.8307545 8.47162275 50.8307545 16.9432455"></polygon>
                            <polygon id="Path" points="55.065574 84.7033085 63.5384431 84.7033085 63.5384431 76.2349155 55.065574 76.2349155 50.8307545 76.2349155 50.8307545 67.7632927 42.3611156 67.7632927 33.8882464 67.7632927 25.4186075 67.7632927 25.4186075 76.2349155 33.8882464 76.2349155 38.1230659 76.2349155 38.1230659 84.7033085 46.5927048 84.7033085"></polygon>
                            <polygon id="Path" points="29.6534269 93.1749312 38.1230659 93.1749312 38.1230659 84.7033085 29.6534269 84.7033085 21.1805578 84.7033085 21.1805578 93.1749312 21.1805578 101.643324 29.6534269 101.643324"></polygon>
                            <polygon id="Path" points="21.1805578 110.111717 21.1805578 101.643324 12.7076886 101.643324 12.7076886 110.111717 12.7076886 118.58657 12.7076886 127.054963 21.1805578 127.054963 21.1805578 118.58657"></polygon>
                            <polygon id="Path" points="29.6534269 135.523356 29.6534269 127.054963 21.1805578 127.054963 21.1805578 135.523356 21.1805578 143.994978 29.6534269 143.994978 38.1230659 143.994978 38.1230659 135.523356"></polygon>
                            <polygon id="Path" points="72.0080821 135.523356 63.5384431 135.523356 63.5384431 143.994978 67.7732626 143.994978 67.7732626 152.466601 76.2429016 152.466601 84.7190009 152.466601 93.1886399 152.466601 93.1886399 143.994978 84.7190009 143.994978 80.4809512 143.994978 80.4809512 135.523356 80.4809512 127.054963 72.0080821 127.054963"></polygon>
                            <polygon id="Path" points="80.4809512 118.58657 80.4809512 127.054963 88.9538204 127.054963 88.9538204 118.58657 88.9538204 110.111717 88.9538204 101.643324 80.4809512 101.643324 80.4809512 110.111717"></polygon>
                            <polygon id="Path" points="72.0080821 93.1749312 72.0080821 101.643324 80.4809512 101.643324 80.4809512 93.1749312 80.4809512 84.7033085 72.0080821 84.7033085 63.5384431 84.7033085 63.5384431 93.1749312"></polygon>
                            <polygon id="Path" points="59.3036237 160.934994 67.7732626 160.934994 67.7732626 152.466601 63.5384431 152.466601 63.5384431 143.994978 55.065574 143.994978 46.5927048 143.994978 38.1230659 143.994978 38.1230659 152.466601 46.5927048 152.466601 50.8307545 152.466601 50.8307545 160.934994 50.8307545 169.406617 59.3036237 169.406617"></polygon>
                            <polygon id="Path" points="50.8307545 177.87501 50.8307545 169.406617 42.3611156 169.406617 42.3611156 177.87501 42.3611156 186.346633 42.3611156 194.818255 50.8307545 194.818255 50.8307545 186.346633"></polygon>
                            <polygon id="Path" points="59.3036237 203.286648 59.3036237 194.818255 50.8307545 194.818255 50.8307545 203.286648 50.8307545 211.758271 59.3036237 211.758271 67.7732626 211.758271 67.7732626 203.286648"></polygon>
                            <polygon id="Path" points="76.2429016 211.758271 67.7732626 211.758271 67.7732626 220.226664 76.2429016 220.226664 84.7190009 220.226664 93.1886399 220.226664 93.1886399 211.758271 84.7190009 211.758271"></polygon>
                            <polygon id="Path" points="101.661509 203.286648 93.1886399 203.286648 93.1886399 211.758271 101.661509 211.758271 110.131148 211.758271 110.131148 203.286648 110.131148 194.818255 101.661509 194.818255"></polygon>
                            <polygon id="Path" points="110.131148 177.87501 110.131148 186.346633 110.131148 194.818255 118.604017 194.818255 118.604017 186.346633 118.604017 177.87501 118.604017 169.406617 110.131148 169.406617"></polygon>
                            <polygon id="Path" points="101.661509 160.934994 101.661509 169.406617 110.131148 169.406617 110.131148 160.934994 110.131148 152.466601 101.661509 152.466601 93.1886399 152.466601 93.1886399 160.934994"></polygon>
                            <polygon id="Path" points="135.546525 88.937505 144.016164 88.937505 144.016164 80.469112 135.546525 80.469112 127.073656 80.469112 118.604017 80.469112 118.604017 88.937505 127.073656 88.937505"></polygon>
                            <polygon id="Path" points="110.131148 97.4091277 118.604017 97.4091277 118.604017 88.937505 110.131148 88.937505 101.661509 88.937505 101.661509 97.4091277 101.661509 105.877521 110.131148 105.877521"></polygon>
                            <polygon id="Path" points="101.661509 114.349143 101.661509 105.877521 93.1886399 105.877521 93.1886399 114.349143 93.1886399 122.820766 93.1886399 131.289159 101.661509 131.289159 101.661509 122.820766"></polygon>
                            <polygon id="Path" points="110.131148 139.757552 110.131148 131.289159 101.661509 131.289159 101.661509 139.757552 101.661509 148.229175 110.131148 148.229175 118.604017 148.229175 118.604017 139.757552"></polygon>
                            <polygon id="Path" points="127.073656 148.229175 118.604017 148.229175 118.604017 156.700798 127.073656 156.700798 135.546525 156.700798 144.016164 156.700798 144.016164 148.229175 135.546525 148.229175"></polygon>
                            <polygon id="Path" points="152.489033 139.757552 144.016164 139.757552 144.016164 148.229175 152.489033 148.229175 160.958672 148.229175 160.958672 139.757552 160.958672 131.289159 152.489033 131.289159"></polygon>
                            <polygon id="Path" points="160.958672 114.349143 160.958672 122.820766 160.958672 131.289159 169.431541 131.289159 169.431541 122.820766 169.431541 114.349143 169.431541 105.877521 160.958672 105.877521"></polygon>
                            <polygon id="Path" points="152.489033 97.4091277 152.489033 105.877521 160.958672 105.877521 160.958672 97.4091277 160.958672 88.937505 152.489033 88.937505 144.016164 88.937505 144.016164 97.4091277"></polygon>
                            <polygon id="Path" points="127.073656 8.47162275 135.546525 8.47162275 135.546525 0 127.073656 0 118.604017 0 110.131148 0 110.131148 8.47162275 118.604017 8.47162275"></polygon>
                            <polygon id="Path" points="101.661509 16.9432455 110.131148 16.9432455 110.131148 8.47162275 101.661509 8.47162275 93.1886399 8.47162275 93.1886399 16.9432455 93.1886399 25.4116385 101.661509 25.4116385"></polygon>
                            <polygon id="Path" points="93.1886399 42.354884 93.1886399 33.8800315 93.1886399 25.4116385 84.7190009 25.4116385 84.7190009 33.8800315 84.7190009 42.354884 84.7190009 50.8200472 93.1886399 50.8200472"></polygon>
                            <polygon id="Path" points="101.661509 59.29167 101.661509 50.8200472 93.1886399 50.8200472 93.1886399 59.29167 93.1886399 67.7632927 101.661509 67.7632927 110.131148 67.7632927 110.131148 59.29167"></polygon>
                            <polygon id="Path" points="118.604017 67.7632927 110.131148 67.7632927 110.131148 76.2349155 118.604017 76.2349155 127.073656 76.2349155 135.546525 76.2349155 135.546525 67.7632927 127.073656 67.7632927"></polygon>
                            <polygon id="Path" points="144.016164 59.29167 135.546525 59.29167 135.546525 67.7632927 144.016164 67.7632927 152.489033 67.7632927 152.489033 59.29167 152.489033 50.8200472 144.016164 50.8200472"></polygon>
                            <polygon id="Path" points="152.489033 42.354884 152.489033 50.8200472 160.958672 50.8200472 160.958672 42.354884 160.958672 33.8800315 160.958672 25.4116385 152.489033 25.4116385 152.489033 33.8800315"></polygon>
                            <polygon id="Path" points="144.016164 16.9432455 144.016164 25.4116385 152.489033 25.4116385 152.489033 16.9432455 152.489033 8.47162275 144.016164 8.47162275 135.546525 8.47162275 135.546525 16.9432455"></polygon>
                        </g>
                    </g>
                </g>
            </g>
        </g>
    </g>
</svg>