<?xml version="1.0" encoding="UTF-8"?>
<svg width="1024px" height="1024px" viewBox="0 0 1024 1024" version="1.1" xmlns="http://www.w3.org/2000/svg" xmlns:xlink="http://www.w3.org/1999/xlink">
    <title>Old Grape Icon@1x</title>
    <defs>
        <path d="M0,0 L1024,0 L1024,1024 L0,1024 L0,0 Z" id="path-1"></path>
    </defs>
    <g id="Old-Grape-Icon" stroke="none" fill="none">
        <use fill="#C22EFF" fill-rule="evenodd" xlink:href="#path-1"></use>
        <g id="Grape-Shape" transform="translate(171, 76)" fill-rule="nonzero">
            <path d="M683,372.366961 C683,301.939781 625.823595,244.64153 555.535962,244.64153 C510.673689,244.64153 471.23781,268.042156 448.520536,303.240385 C425.803262,268.042156 386.367382,244.64153 341.50511,244.64153 C296.642837,244.64153 257.206957,268.042156 234.479464,303.250626 C211.751971,268.042156 172.316092,244.64153 127.453819,244.64153 C57.1764046,244.64153 0,301.939781 0,372.366961 C0,440.766429 53.9777961,496.620703 121.46537,499.785164 C112.288531,517.40988 107.025645,537.390021 107.025645,558.60932 C107.025645,626.763004 160.604893,682.453422 227.734795,685.996799 C219.048478,703.252841 214.041071,722.659487 214.041071,743.264328 C214.041071,813.701749 271.217476,871 341.49489,871 C411.772305,871 468.94871,813.701749 468.94871,743.264328 C468.94871,722.659487 463.941303,703.252841 455.254986,685.996799 C522.384888,682.443181 575.964136,626.763004 575.964136,558.60932 C575.964136,537.390021 570.701249,517.399639 561.524411,499.785164 C629.022204,496.610462 683,440.756188 683,372.366961 Z M341.50511,285.605427 C389.238977,285.605427 428.082143,324.531371 428.082143,372.366961 C428.082143,420.202552 389.249196,459.128496 341.50511,459.128496 C293.761023,459.128496 254.917857,420.202552 254.917857,372.366961 C254.917857,324.531371 293.771243,285.605427 341.50511,285.605427 Z M40.8870053,372.366961 C40.8870053,324.531371 79.7301713,285.605427 127.464038,285.605427 C175.208124,285.605427 214.05129,324.531371 214.05129,372.366961 C214.05129,420.202552 175.208124,459.128496 127.464038,459.128496 C79.7301713,459.118255 40.8870053,420.202552 40.8870053,372.366961 Z M147.912651,558.60932 C147.912651,510.763488 186.755817,471.837545 234.489684,471.837545 C282.223551,471.837545 321.066717,510.763488 321.066717,558.60932 C321.066717,587.601518 306.749622,613.255159 284.890761,629.016018 C279.68919,631.617226 274.630688,634.464217 269.848104,637.731087 C259.036194,642.605791 247.089953,645.381095 234.479464,645.381095 C186.745597,645.381095 147.912651,606.455152 147.912651,558.60932 Z M341.50511,830.036103 C293.771243,830.036103 254.928077,791.11016 254.928077,743.264328 C254.928077,714.28237 269.234952,688.649212 291.093813,672.888352 C296.305603,670.276904 301.374325,667.429913 306.14669,664.163042 C316.9586,659.278097 328.90484,656.513034 341.515329,656.513034 C354.115598,656.513034 366.061839,659.288338 376.873749,664.163042 C381.646114,667.419672 386.714835,670.276904 391.926625,672.888352 C413.785487,688.649212 428.092362,714.28237 428.092362,743.264328 C428.082143,791.11016 389.238977,830.036103 341.50511,830.036103 Z M448.520536,645.381095 C435.920266,645.381095 423.963806,642.605791 413.162116,637.731087 C408.389751,634.474458 403.331249,631.617226 398.119458,629.016018 C376.260597,613.255159 361.943503,587.601518 361.943503,558.60932 C361.943503,510.763488 400.786669,471.837545 448.520536,471.837545 C496.254403,471.837545 535.097569,510.763488 535.097569,558.60932 C535.097569,606.455152 496.264622,645.381095 448.520536,645.381095 Z M555.535962,459.118255 C507.802095,459.118255 468.958929,420.192311 468.958929,372.356721 C468.958929,324.52113 507.802095,285.595186 555.535962,285.595186 C603.280048,285.595186 642.123214,324.52113 642.123214,372.356721 C642.123214,420.192311 603.280048,459.118255 555.535962,459.118255 Z" id="Shape" fill="#FFFFFF"></path>
            <path d="M368.172953,233.218579 C469.001812,233.218579 496.69237,149.043199 497.245362,104.536324 C497.37849,93.4275061 488.633025,84.2519908 477.532224,83.8325971 C442.642531,82.7380819 409.022671,95.6472239 384.271162,120.370993 C361.36296,143.233063 347.691771,177.776781 347.691771,212.760351 C347.691771,224.063522 356.8571,233.218579 368.172953,233.218579 Z M413.231554,149.298927 C424.342595,138.200338 438.013784,130.589878 452.924084,126.999459 C447.271278,149.360302 432.115203,181.111472 391.460057,189.939198 C394.890655,175.751416 401.700648,160.81691 413.231554,149.298927 Z" id="Shape" fill="#FFF9F5"></path>
            <path d="M324.283649,198.949727 C335.62746,198.949727 344.834031,189.744691 344.834031,178.402771 C344.834031,39.0533161 228.282541,0.784610778 166.651947,0.014099932 C155.410888,-0.407112664 146.276243,8.66436836 145.865236,19.790545 C144.067077,67.7060461 162.469944,114.614746 196.336973,148.486403 C227.933185,180.097895 275.764198,198.949727 324.283649,198.949727 Z M302.407768,156.140144 C276.65814,152.215676 247.188892,141.223054 225.405488,119.433008 C204.50575,98.5367534 191.589835,72.1236416 187.921592,43.4811851 C223.833384,49.7891006 292.081201,72.7195033 302.407768,156.140144 Z" id="Shape" fill="#F9F4F0"></path>
        </g>
    </g>
</svg>